<mxfile host="app.diagrams.net" agent="Mozilla/5.0 (Windows NT 10.0; Win64; x64) AppleWebKit/537.36 (KHTML, like Gecko) Chrome/130.0.0.0 Safari/537.36" version="24.8.4">
  <diagram name="Page-1" id="YjCH9ufBn3oqxr8NeUnp">
    <mxGraphModel dx="724" dy="366" grid="1" gridSize="10" guides="1" tooltips="1" connect="1" arrows="1" fold="1" page="1" pageScale="1" pageWidth="827" pageHeight="1169" math="0" shadow="0">
      <root>
        <mxCell id="0" />
        <mxCell id="1" parent="0" />
        <mxCell id="45-gMmrot0pft46hDpP7-1" value="" style="rounded=0;whiteSpace=wrap;html=1;strokeWidth=2.5;" vertex="1" parent="1">
          <mxGeometry x="80" y="120" width="240" height="270" as="geometry" />
        </mxCell>
        <mxCell id="45-gMmrot0pft46hDpP7-4" value="&lt;font style=&quot;font-size: 13px;&quot;&gt;&lt;b&gt;Title and Subject&lt;/b&gt;&lt;/font&gt;" style="text;strokeColor=none;fillColor=none;align=left;verticalAlign=middle;spacingLeft=4;spacingRight=4;overflow=hidden;points=[[0,0.5],[1,0.5]];portConstraint=eastwest;rotatable=0;whiteSpace=wrap;html=1;" vertex="1" parent="1">
          <mxGeometry x="80" y="120" width="150" height="30" as="geometry" />
        </mxCell>
        <mxCell id="45-gMmrot0pft46hDpP7-5" value="" style="endArrow=none;html=1;rounded=0;exitX=0.997;exitY=0.073;exitDx=0;exitDy=0;exitPerimeter=0;strokeWidth=1.8;" edge="1" parent="1">
          <mxGeometry width="50" height="50" relative="1" as="geometry">
            <mxPoint x="319" y="170" as="sourcePoint" />
            <mxPoint x="80" y="171" as="targetPoint" />
          </mxGeometry>
        </mxCell>
        <mxCell id="45-gMmrot0pft46hDpP7-6" value="&lt;b&gt;From: xxxxxx&lt;/b&gt;" style="text;strokeColor=none;fillColor=none;align=left;verticalAlign=middle;spacingLeft=4;spacingRight=4;overflow=hidden;points=[[0,0.5],[1,0.5]];portConstraint=eastwest;rotatable=0;whiteSpace=wrap;html=1;" vertex="1" parent="1">
          <mxGeometry x="100" y="150" width="100" height="30" as="geometry" />
        </mxCell>
        <mxCell id="45-gMmrot0pft46hDpP7-7" value="&lt;b&gt;To: victim&lt;/b&gt;" style="text;strokeColor=none;fillColor=none;align=left;verticalAlign=middle;spacingLeft=4;spacingRight=4;overflow=hidden;points=[[0,0.5],[1,0.5]];portConstraint=eastwest;rotatable=0;whiteSpace=wrap;html=1;" vertex="1" parent="1">
          <mxGeometry x="240" y="150" width="70" height="30" as="geometry" />
        </mxCell>
        <mxCell id="45-gMmrot0pft46hDpP7-8" value="&lt;b&gt;Detail Content&amp;nbsp;&lt;/b&gt;" style="swimlane;fontStyle=0;childLayout=stackLayout;horizontal=1;startSize=30;horizontalStack=0;resizeParent=1;resizeParentMax=0;resizeLast=0;collapsible=1;marginBottom=0;whiteSpace=wrap;html=1;strokeWidth=1.8;" vertex="1" parent="1">
          <mxGeometry x="105" y="210" width="190" height="120" as="geometry">
            <mxRectangle x="130" y="220" width="50" height="40" as="alternateBounds" />
          </mxGeometry>
        </mxCell>
        <mxCell id="45-gMmrot0pft46hDpP7-9" value="&lt;b&gt;&amp;nbsp;- - -&amp;nbsp;&amp;nbsp;- - -&amp;nbsp;&amp;nbsp;- - -&amp;nbsp;&amp;nbsp;- - -&amp;nbsp;&amp;nbsp;- - -&amp;nbsp;&amp;nbsp;- - -&amp;nbsp;&amp;nbsp;- - -&amp;nbsp;&lt;/b&gt;" style="text;strokeColor=none;fillColor=none;align=left;verticalAlign=middle;spacingLeft=4;spacingRight=4;overflow=hidden;points=[[0,0.5],[1,0.5]];portConstraint=eastwest;rotatable=0;whiteSpace=wrap;html=1;" vertex="1" parent="45-gMmrot0pft46hDpP7-8">
          <mxGeometry y="30" width="190" height="30" as="geometry" />
        </mxCell>
        <mxCell id="45-gMmrot0pft46hDpP7-10" value="&lt;b&gt;&amp;nbsp;- - -&amp;nbsp;&amp;nbsp;- - -&amp;nbsp;&amp;nbsp;- - -&amp;nbsp;&amp;nbsp;- - -&amp;nbsp;&amp;nbsp;- - -&amp;nbsp;&amp;nbsp;- - -&amp;nbsp;&amp;nbsp;- - -&amp;nbsp;&lt;/b&gt;" style="text;strokeColor=none;fillColor=none;align=left;verticalAlign=middle;spacingLeft=4;spacingRight=4;overflow=hidden;points=[[0,0.5],[1,0.5]];portConstraint=eastwest;rotatable=0;whiteSpace=wrap;html=1;" vertex="1" parent="45-gMmrot0pft46hDpP7-8">
          <mxGeometry y="60" width="190" height="30" as="geometry" />
        </mxCell>
        <mxCell id="45-gMmrot0pft46hDpP7-11" value="&lt;b&gt;&amp;nbsp;- - -&amp;nbsp;&amp;nbsp;- - -&amp;nbsp;&amp;nbsp;- - -&amp;nbsp;&amp;nbsp;- - -&amp;nbsp;&amp;nbsp;- - -&amp;nbsp;&amp;nbsp;- - -&amp;nbsp;&amp;nbsp;- - -&amp;nbsp;&lt;/b&gt;" style="text;strokeColor=none;fillColor=none;align=left;verticalAlign=middle;spacingLeft=4;spacingRight=4;overflow=hidden;points=[[0,0.5],[1,0.5]];portConstraint=eastwest;rotatable=0;whiteSpace=wrap;html=1;" vertex="1" parent="45-gMmrot0pft46hDpP7-8">
          <mxGeometry y="90" width="190" height="30" as="geometry" />
        </mxCell>
        <mxCell id="45-gMmrot0pft46hDpP7-16" value="" style="endArrow=none;dashed=1;html=1;dashPattern=1 3;strokeWidth=2.5;rounded=0;entryX=1.005;entryY=0.098;entryDx=0;entryDy=0;entryPerimeter=0;" edge="1" parent="1" target="45-gMmrot0pft46hDpP7-1">
          <mxGeometry width="50" height="50" relative="1" as="geometry">
            <mxPoint x="80" y="147" as="sourcePoint" />
            <mxPoint x="240" y="190" as="targetPoint" />
          </mxGeometry>
        </mxCell>
      </root>
    </mxGraphModel>
  </diagram>
</mxfile>
